<svg xmlns="http://www.w3.org/2000/svg" width="147.276" height="25.92" viewBox="0 0 147.276 25.92">
  <path id="パス_252" data-name="パス 252" d="M-54.72-2.664-55.4-4.392c-.216-.54-.36-.756-.648-.756a1.69,1.69,0,0,0-.72.252,9.4,9.4,0,0,1-4.176.9C-66.1-4-69.3-7.452-69.3-12.528s3.06-9.288,9.036-9.288a9.713,9.713,0,0,1,3.852.828,1.908,1.908,0,0,0,.72.216c.288,0,.4-.216.612-.756l.792-2.16a2.139,2.139,0,0,0,.18-.684c0-.324-.252-.5-.792-.72a14.126,14.126,0,0,0-5.184-.9c-9,0-13.572,6.048-13.572,13.572,0,7.38,4.788,12.348,12.24,12.348a15.793,15.793,0,0,0,6.084-1.152c.54-.252.792-.432.792-.756A2.139,2.139,0,0,0-54.72-2.664Zm15.876-16.308c-5.976,0-9.54,4.1-9.54,9.9,0,5.508,3.78,9,8.892,9,5.688,0,9.54-3.78,9.54-9.828C-29.952-15.408-33.768-18.972-38.844-18.972Zm-.18,3.888c2.808,0,4.9,2.124,4.9,5.508,0,3.6-2.16,6.012-5.256,6.012-2.808,0-4.824-2.16-4.824-5.472C-44.208-12.492-42.408-15.084-39.024-15.084ZM-18-12.276a1.729,1.729,0,0,1,.792-1.62,5.617,5.617,0,0,1,3.384-1.188c2.376,0,3.528,1.476,3.528,3.672v5.364c0,1.62-.072,4.608-.072,4.86,0,.756.216.9,1.044.9h2.088c.828,0,1.044-.144,1.044-.9,0-.252-.072-3.24-.072-4.86v-6.48c0-4-2.484-6.444-6.192-6.444a8.343,8.343,0,0,0-5,1.656,1.1,1.1,0,0,1-.54.252c-.18,0-.252-.216-.288-.684-.036-.864-.18-1.008-1.044-1.008H-21.06c-.828,0-1.044.144-1.044.9,0,.252.072,3.24.072,4.86v6.948c0,1.62-.072,4.608-.072,4.86,0,.756.216.9,1.044.9h2.088c.828,0,1.044-.144,1.044-.9,0-.252-.072-3.24-.072-4.86ZM12.492-3.06c0-.684-.072-.936-.5-.936-.252,0-1.08.216-1.764.216-1.872,0-2.736-.684-2.736-2.736V-14.04c0-.9.18-1.08,1.08-1.08h.72c.648,0,1.8.036,2.124.036.936,0,1.08-.144,1.08-1.044v-1.548c0-.9-.144-1.044-1.08-1.044-.36,0-1.476.036-2.124.036H8.316c-.72,0-.828-.108-.828-.864,0-1.26.072-3.168.072-3.42,0-.756-.216-.9-1.044-.9H4.536c-.828,0-1.044.144-1.044.9,0,.252.072,2.3.072,3.42,0,.756-.072.864-.684.864-.4,0-.972-.036-1.26-.036-.936,0-1.08.144-1.08,1.08v1.476c0,.936.144,1.08,1.08,1.08.18,0,.792-.036,1.224-.036.612,0,.72.18.72.9v8.28c0,3.636,1.512,5.8,5.9,5.8a17.664,17.664,0,0,0,1.98-.144c.864-.144,1.044-.36,1.044-1.26Zm20.7,2.772c.792,0,1.008-.144,1.008-.756s-.108-3.2-.072-5.256l.108-5.472c0-5.076-2.268-7.2-6.876-7.2a15.988,15.988,0,0,0-6.732,1.62c-.5.252-.72.468-.72.792a1.48,1.48,0,0,0,.18.684l.684,1.584c.216.5.36.72.612.72a1.469,1.469,0,0,0,.72-.324,9.584,9.584,0,0,1,4.752-1.476,3.069,3.069,0,0,1,2.772,1.152,3.168,3.168,0,0,1,.576,1.584c-.036.4-.288.54-.9.576-4.824.468-10.26,2.484-10.26,7.092,0,3.276,2.3,4.9,5.4,4.9a9.937,9.937,0,0,0,5.292-1.62,1.032,1.032,0,0,1,.5-.252c.216,0,.252.216.288.612.036.972.216,1.044,1.044,1.044ZM30.24-7.776v1.584a1.475,1.475,0,0,1-.9,1.584A7.531,7.531,0,0,1,25.524-3.42c-1.512,0-2.484-.648-2.484-1.836,0-1.8,2.844-2.988,6.156-3.456a1.9,1.9,0,0,1,.432-.036C30.132-8.748,30.24-8.5,30.24-7.776ZM55.584-2.412l-.5-1.26c-.216-.576-.324-.792-.612-.792a1.908,1.908,0,0,0-.72.216,6.419,6.419,0,0,1-2.664.576c-3.492,0-5.148-2.52-5.148-5.256,0-3.564,2.34-6.12,5.832-6.12a5.92,5.92,0,0,1,2.16.432,1.908,1.908,0,0,0,.72.216c.288,0,.4-.216.612-.792l.648-1.764a1.927,1.927,0,0,0,.144-.648c-.036-.36-.252-.54-.792-.72a10.49,10.49,0,0,0-3.6-.612c-6.408,0-9.9,4.356-9.9,10.116,0,4.464,2.556,8.748,8.748,8.748a11.514,11.514,0,0,0,4.5-.9c.5-.252.756-.432.756-.756A2.139,2.139,0,0,0,55.584-2.412ZM73.62-3.06c0-.684-.072-.936-.5-.936-.252,0-1.08.216-1.764.216-1.872,0-2.736-.684-2.736-2.736V-14.04c0-.9.18-1.08,1.08-1.08h.72c.648,0,1.8.036,2.124.036.936,0,1.08-.144,1.08-1.044v-1.548c0-.9-.144-1.044-1.08-1.044-.36,0-1.476.036-2.124.036h-.972c-.72,0-.828-.108-.828-.864,0-1.26.072-3.168.072-3.42,0-.756-.216-.9-1.044-.9h-1.98c-.828,0-1.044.144-1.044.9,0,.252.072,2.3.072,3.42,0,.756-.072.864-.684.864-.4,0-.972-.036-1.26-.036-.936,0-1.08.144-1.08,1.08v1.476c0,.936.144,1.08,1.08,1.08.18,0,.792-.036,1.224-.036.612,0,.72.18.72.9v8.28c0,3.636,1.512,5.8,5.9,5.8a17.664,17.664,0,0,0,1.98-.144c.864-.144,1.044-.36,1.044-1.26Z" transform="translate(73.656 25.992)"/>
</svg>
