<svg xmlns="http://www.w3.org/2000/svg" width="166.14" height="26.82" viewBox="0 0 166.14 26.82">
  <path id="パス_253" data-name="パス 253" d="M-79.056-.288c.828,0,1.044-.144,1.044-.9,0-.252-.108-4.212-.108-6.3v-.828c0-.9.18-1.08,1.08-1.08H-74.2c6.66,0,9.576-3.78,9.576-8.928,0-5.076-3.1-7.452-8.208-7.452H-76.5c-1.692,0-4.536-.072-4.788-.072-.792,0-1.008.288-1.008,1.152.036,2.052.072,4.284.072,6.048v11.16c0,2.088-.108,6.048-.108,6.3,0,.756.216.9,1.044.9Zm.936-20.7c0-.9.18-1.08,1.08-1.08h3.456c2.664,0,4.716,1.008,4.716,4.14,0,3.564-2.34,4.968-5.328,4.968H-77.04c-.9,0-1.08-.18-1.08-1.08Zm24.372,9.432a1.7,1.7,0,0,1,.792-1.62,6.208,6.208,0,0,1,3.744-1.4c.36,0,.684.072.864.072.4,0,.612-.18.612-.72v-2.736c0-.72-.144-.972-.684-.972a8.911,8.911,0,0,0-1.98.36,8.939,8.939,0,0,0-2.88,1.656,1.121,1.121,0,0,1-.54.324c-.216,0-.324-.288-.324-1.08,0-.936-.216-1.08-1.152-1.08h-1.512c-.828,0-1.044.144-1.044.9,0,.252.072,3.24.072,4.86v6.948c0,1.62-.072,4.608-.072,4.86,0,.756.216.9,1.044.9h2.088c.828,0,1.044-.144,1.044-.9,0-.252-.072-3.24-.072-4.86Zm20.916-7.416c-5.976,0-9.54,4.1-9.54,9.9,0,5.508,3.78,9,8.892,9,5.688,0,9.54-3.78,9.54-9.828C-23.94-15.408-27.756-18.972-32.832-18.972Zm-.18,3.888c2.808,0,4.9,2.124,4.9,5.508,0,3.6-2.16,6.012-5.256,6.012-2.808,0-4.824-2.16-4.824-5.472C-38.2-12.492-36.4-15.084-33.012-15.084ZM-1.26-.288c.828,0,1.044-.144,1.044-.9,0-.252-.072-3.24-.072-4.86V-21.1c0-1.62.072-4.608.072-4.86,0-.756-.216-.9-1.044-.9H-3.348c-.828,0-1.044.144-1.044.9,0,.252.072,3.24.072,4.86v1.332c0,.72-.072.936-.54.936a2.737,2.737,0,0,1-.5-.036,9.343,9.343,0,0,0-1.44-.108c-5.04,0-10.3,3.276-10.3,10.476,0,5.112,2.916,8.424,7.488,8.424A8.256,8.256,0,0,0-4.86-1.656a1.1,1.1,0,0,1,.54-.252c.18,0,.216.18.252.612.036.864.216,1.008,1.044,1.008Zm-4.1-14.8c.828.144,1.044.4,1.044,1.26v7.488a1.691,1.691,0,0,1-.828,1.62A5.748,5.748,0,0,1-8.5-3.6c-2.556,0-4.428-1.836-4.428-5.076,0-4.212,2.988-6.516,6.048-6.516A9.3,9.3,0,0,1-5.364-15.084Zm28.62,14.8c.828,0,1.044-.144,1.044-.9,0-.252-.072-3.24-.072-4.86v-6.984c0-1.584.072-4.572.072-4.824,0-.756-.216-.9-1.044-.9H21.168c-.828,0-1.044.144-1.044.9,0,.252.072,3.24.072,4.824v6.516A1.729,1.729,0,0,1,19.4-4.9,5.617,5.617,0,0,1,16.02-3.708c-2.376,0-3.528-1.476-3.528-3.672v-5.652c0-1.584.072-4.572.072-4.824,0-.756-.216-.9-1.044-.9H9.432c-.828,0-1.044.144-1.044.9,0,.252.072,3.24.072,4.824v6.516c0,4,2.484,6.444,6.192,6.444a8.343,8.343,0,0,0,5-1.656,1.1,1.1,0,0,1,.54-.252c.18,0,.216.18.252.648.036.936.216,1.044,1.08,1.044ZM45.972-2.412l-.5-1.26c-.216-.576-.324-.792-.612-.792a1.908,1.908,0,0,0-.72.216,6.419,6.419,0,0,1-2.664.576c-3.492,0-5.148-2.52-5.148-5.256,0-3.564,2.34-6.12,5.832-6.12a5.92,5.92,0,0,1,2.16.432,1.908,1.908,0,0,0,.72.216c.288,0,.4-.216.612-.792l.648-1.764a1.927,1.927,0,0,0,.144-.648c-.036-.36-.252-.54-.792-.72a10.49,10.49,0,0,0-3.6-.612c-6.408,0-9.9,4.356-9.9,10.116,0,4.464,2.556,8.748,8.748,8.748a11.514,11.514,0,0,0,4.5-.9c.5-.252.756-.432.756-.756A2.139,2.139,0,0,0,45.972-2.412ZM64.008-3.06c0-.684-.072-.936-.5-.936-.252,0-1.08.216-1.764.216C59.868-3.78,59-4.464,59-6.516V-14.04c0-.9.18-1.08,1.08-1.08h.72c.648,0,1.8.036,2.124.036.936,0,1.08-.144,1.08-1.044v-1.548c0-.9-.144-1.044-1.08-1.044-.36,0-1.476.036-2.124.036h-.972c-.72,0-.828-.108-.828-.864,0-1.26.072-3.168.072-3.42,0-.756-.216-.9-1.044-.9h-1.98c-.828,0-1.044.144-1.044.9,0,.252.072,2.3.072,3.42,0,.756-.072.864-.684.864-.4,0-.972-.036-1.26-.036-.936,0-1.08.144-1.08,1.08v1.476c0,.936.144,1.08,1.08,1.08.18,0,.792-.036,1.224-.036.612,0,.72.18.72.9v8.28c0,3.636,1.512,5.8,5.9,5.8a17.664,17.664,0,0,0,1.98-.144c.864-.144,1.044-.36,1.044-1.26Zm14.04-8.1c-1.908-.684-3.528-1.368-3.528-2.484,0-1.08,1.116-1.8,2.808-1.8a7.909,7.909,0,0,1,3.708,1.008,1.72,1.72,0,0,0,.72.288c.252,0,.4-.252.612-.756l.648-1.692a2.234,2.234,0,0,0,.18-.648c0-.36-.252-.54-.756-.792a12.153,12.153,0,0,0-4.86-.972c-4.572,0-7.128,2.268-7.128,5.4,0,3.636,3.276,4.9,5.94,5.868,1.836.648,3.384,1.3,3.384,2.448,0,1.26-1.224,1.944-3.06,1.944A8.628,8.628,0,0,1,72.288-4.68,1.469,1.469,0,0,0,71.568-5c-.252,0-.4.216-.648.72l-.648,1.4a1.619,1.619,0,0,0-.216.684c0,.324.216.54.684.792a13.1,13.1,0,0,0,5.9,1.368c3.78,0,7.164-1.584,7.164-5.4C83.808-8.928,80.712-10.152,78.048-11.16Z" transform="translate(82.332 26.856)"/>
</svg>
