<svg id="グループ_159" data-name="グループ 159" xmlns="http://www.w3.org/2000/svg" xmlns:xlink="http://www.w3.org/1999/xlink" width="203.107" height="40" viewBox="0 0 203.107 40">
  <defs>
    <style>
      .cls-1 {
        fill: none;
      }

      .cls-2 {
        clip-path: url(#clip-path);
      }
    </style>
    <clipPath id="clip-path">
      <rect id="長方形_76" data-name="長方形 76" class="cls-1" width="203.107" height="40"/>
    </clipPath>
  </defs>
  <g id="グループ_152" data-name="グループ 152" class="cls-2" transform="translate(0 0)">
    <path id="パス_223" data-name="パス 223" d="M6.2,34.971c.455,1.1,1.343,3.1,1.413,3.274.213.512.107.671-.454.9l-1.416.586c-.56.232-.748.2-.96-.317-.071-.171-.861-2.216-1.316-3.315L1.515,31.394C1.061,30.3.173,28.29.1,28.119c-.212-.511-.106-.671.454-.9l1.2-.5c.561-.233.7-.175.957.376.155.306.265.432.387.383a.815.815,0,0,0,.3-.323,5.7,5.7,0,0,1,2.79-2.443A4.19,4.19,0,0,1,9.6,24.673c.321.152.493.224.64.163.122-.051.2-.2.367-.494a6.513,6.513,0,0,1,3.145-2.761c2.416-1,4.714-.009,5.837,2.7L21.4,28.673c.455,1.1,1.343,3.1,1.414,3.275.211.511.105.67-.455.9l-1.416.586c-.56.232-.748.2-.96-.317-.071-.171-.861-2.216-1.316-3.315l-1.506-3.636c-.616-1.488-1.739-2.2-3.252-1.569a3.767,3.767,0,0,0-1.824,1.671,1,1,0,0,0-.07,1.143l1.82,4.393c.454,1.1,1.343,3.1,1.413,3.274.212.513.106.672-.454.9l-1.415.586c-.561.231-.749.2-.961-.318-.071-.17-.862-2.217-1.316-3.314L9.6,29.3c-.616-1.489-1.739-2.2-3.253-1.569A3.838,3.838,0,0,0,4.513,29.38a1.269,1.269,0,0,0-.082,1.32Z" transform="translate(0 0.017)"/>
    <path id="パス_224" data-name="パス 224" d="M37.706,20.841c1.262,4.255-.66,7.72-4.662,8.906a6.248,6.248,0,0,1-8.137-4.477c-1.21-4.079.442-7.711,4.648-8.958a6.305,6.305,0,0,1,8.151,4.529m-9.852,3.583c.691,2.331,2.561,3.431,4.537,2.844,2.179-.647,3.2-2.794,2.444-5.327-.706-2.382-2.619-3.442-4.595-2.855-2.382.707-3.107,2.905-2.386,5.338" transform="translate(0.02 0.013)"/>
    <path id="パス_225" data-name="パス 225" d="M49.522,26.535c-.177,1.04-.348,2.106-.545,3.421-.1.671-.2.8-.873.95l-1.626.358c-.413.09-.579.073-.626-.133a.986.986,0,0,1,.033-.467c.309-1.421.527-2.523.691-3.372l.146-.818a1.87,1.87,0,0,0,.048-.768,1.89,1.89,0,0,0-.367-.678L41.238,17.67c-.74-1.028-1.374-1.944-2.259-3.129a1.368,1.368,0,0,1-.224-.411c-.046-.206.124-.3.536-.388l1.78-.392c.672-.147.824-.072,1.192.5.748,1.189,1.369,2.161,2.015,3.129l2.909,4.366c.159.235.27.373.374.349.077-.016.152-.168.193-.474l.813-5.158c.18-1.149.334-2.293.509-3.711.1-.671.2-.8.874-.95l1.625-.357c.413-.091.605-.079.65.127a1.292,1.292,0,0,1-.032.466c-.317,1.5-.523,2.66-.715,3.756Z" transform="translate(0.031 0.009)"/>
    <path id="パス_226" data-name="パス 226" d="M60.776,18.88c.156,1.179.5,3.346.52,3.528.073.55-.07.677-.673.756l-1.519.2c-.6.08-.774,0-.847-.553-.024-.184-.259-2.365-.415-3.543l-.669-5.055c-.156-1.179-.5-3.346-.52-3.528-.073-.55.07-.676.673-.756l1.283-.17c.6-.079.722.011.828.609.071.337.144.487.275.47a.8.8,0,0,0,.368-.236,5.7,5.7,0,0,1,3.327-1.638,4.194,4.194,0,0,1,3.31.841c.271.231.418.344.576.323.13-.017.247-.139.481-.383A6.519,6.519,0,0,1,71.527,7.89c2.593-.343,4.557,1.209,4.942,4.116l.623,4.714c.156,1.179.5,3.346.52,3.529.073.549-.07.676-.673.755l-1.519.2c-.6.08-.774,0-.846-.553-.025-.183-.26-2.365-.415-3.544l-.517-3.9c-.211-1.6-1.113-2.571-2.736-2.356a3.762,3.762,0,0,0-2.194,1.143,1,1,0,0,0-.363,1.087l.625,4.715c.156,1.179.5,3.346.52,3.528.073.55-.07.676-.673.756l-1.519.2c-.6.08-.774,0-.847-.553-.024-.184-.259-2.365-.415-3.543l-.516-3.9c-.211-1.6-1.113-2.57-2.737-2.355a3.831,3.831,0,0,0-2.2,1.117,1.267,1.267,0,0,0-.42,1.254Z" transform="translate(0.045 0.006)"/>
    <path id="パス_227" data-name="パス 227" d="M94.783,12.984c.215,4.434-2.474,7.341-6.643,7.544a6.247,6.247,0,0,1-6.838-6.28c-.206-4.248,2.26-7.384,6.64-7.6a6.306,6.306,0,0,1,6.841,6.333M84.363,14.126c.118,2.428,1.672,3.939,3.731,3.839,2.27-.11,3.767-1.956,3.639-4.595-.121-2.48-1.727-3.963-3.785-3.862-2.481.12-3.708,2.085-3.585,4.618" transform="translate(0.065 0.005)"/>
    <path id="パス_228" data-name="パス 228" d="M107.3,19.37l-.575-.031c-.648-.033-.6.041-.648.881-.022.408-.1.476-1.033.427-.792-.041-.96-.05-.93-.625.025-.479.073-.934.1-1.391l.192-3.67c.019-.359.013-.721.032-1.081.033-.623.221-1,.893-.963.408.021.791.065,1.174.084l1.656.087c.359.019.745.015,1.129.035.672.035.845.38.813,1-.019.384-.062.744-.083,1.127l-.13,2.5c-.012.239,0,.48-.013.72.015.169.055.316.248.326a.434.434,0,0,0,.244-.083,10.979,10.979,0,0,0,1.261-1.114.741.741,0,0,0,.243-.515,1.026,1.026,0,0,0-.1-.487,14.7,14.7,0,0,1-1.213-4.417c.028-.527,1.046-.668,1.453-.646s.42.238.475.577a13.985,13.985,0,0,0,.531,2.265c.043.1.087.173.207.179a.233.233,0,0,0,.226-.18,18.347,18.347,0,0,0,.86-4.044c.016-.289-.1-.319-.438-.336l-.312-.016c-.384-.021-.588.209-.864.411a.53.53,0,0,1-.416.147c-.384-.02-1.613-.445-1.585-.973a23.161,23.161,0,0,1,1.157-2.346A41.431,41.431,0,0,0,113.8,2.991c.015-.288-.394-.286-.923-.313l-.119-.006c-.36-.018-.795.007-1.058-.007-.432-.023-.385-.453-.349-1.149.041-.792.033-1.1.513-1.08.072,0,.863.069,1.006.077l2.208.114a1.183,1.183,0,0,1,1.139.758,2.514,2.514,0,0,1,.271.809,48.2,48.2,0,0,1-2.188,5.033.706.706,0,0,0-.059.214c-.014.263.2.37.435.407.745.015,1.155-.012,1.473.365a1.619,1.619,0,0,1,.419,1.177c-.045.863-.374,2.554-.541,3.46a15.233,15.233,0,0,1-1.136,3.789.976.976,0,0,0-.092.38.653.653,0,0,0,.281.592c1.175,1,2.969,1.189,4.6,1.274l1.32.07c1.2.062,2.788.049,3.532.088.527.027.554.413.532.845-.068,1.32-.488,1.538-1.929,1.463-.887-.047-2.11-.134-3-.18l-.984-.051a12.954,12.954,0,0,1-2.842-.389,6.472,6.472,0,0,1-2.483-1.284.748.748,0,0,0-.422-.191.587.587,0,0,0-.469.216c-.356.366-1.747,1.689-2.18,1.666-.311-.016-.607-.344-.812-.571a1.2,1.2,0,0,0-.988-.436l-.192-.01c-.48-.025-.72-.037-.879-.214-.178-.274-.31-.521-.6-.536m-.512-14.147c-.7-.037-1.37-.023-2.042-.059-.576-.03-.531-.436-.5-1.012.043-.817.074-.959.746-.924.383.02.981.1,1.893.146l1.847.1c.672.035,1.346.022,2.019.058.575.029.532.387.5.988-.036.672-.052.983-.627.954-.672-.035-1.341-.118-1.99-.152Zm-.116,6.368c-.527-.027-1.034-.006-1.49-.029-.5-.026-.458-.433-.432-.938.029-.55.024-.913.551-.885.407.021.934.1,1.461.125l1.463.076c.527.027,1.059.007,1.466.028.527.028.487.338.456.939-.027.527-.023.913-.527.886s-.981-.1-1.485-.126Zm.283-3.112c-.552-.028-1.082-.008-1.61-.035-.5-.027-.456-.481-.427-1.033s.028-.986.531-.959c.527.027,1.054.079,1.606.108l1.247.064c.528.028,1.081.033,1.609.06.5.026.433.432.4,1.008-.035.673-.029,1.009-.557.981-.5-.026-1.029-.1-1.556-.129Zm.267-6.505c-.5-.026-1.011,0-1.538-.032-.5-.027-.433-.455-.405-.984.035-.672.027-.985.578-.956.336.018.934.072,1.463.1l1.438.074c.528.028,1.106.034,1.49.054.527.028.484.385.451,1.01-.026.5,0,.962-.53.935-.5-.026-1-.1-1.508-.127Zm.824,13.707a.687.687,0,0,0-.637-.707l-.383-.02a.687.687,0,0,0-.708.637l-.059,1.127a.689.689,0,0,0,.638.708l.383.02a.689.689,0,0,0,.708-.637ZM120.9,4.347c.015-.287-.091-.558-.427-.575-.048,0-.121.018-.169.015a15.75,15.75,0,0,1-2.032.207c-.407-.021-.562-.27-.642-.61a4.188,4.188,0,0,1-.225-1.215c.024-.456.383-.413.938-.456A18.256,18.256,0,0,0,124.058.567a.511.511,0,0,1,.27-.082c.335.017,1.334,2.09,1.325,2.258a.237.237,0,0,1-.228.229.337.337,0,0,1-.165-.057,2.1,2.1,0,0,0-.38-.091,9.371,9.371,0,0,0-1.146.276.746.746,0,0,0-.643.809l-.176,3.359c-.024.455.159.634.638.683.456.024,1.107.009,1.394.025.432.022.392.332.348,1.173-.049.935-.04,1.225-.471,1.2-.168-.009-1.007-.077-1.39-.121-.48,0-.682.181-.707.638l-.188,3.622a.564.564,0,0,0,.613.682c.526.051,1.082.008,1.609.036.576.03.535.365.492,1.18s-.036,1.154-.612,1.123c-.744-.039-1.483-.149-2.251-.189l-3.766-.2c-.745-.039-1.516-.007-2.26-.046-.575-.031-.533-.365-.491-1.181.055-1.056.084-1.15.828-1.111.384.019.56-.139.579-.5l.294-5.638A13.027,13.027,0,0,0,117.6,6.7c0-.073-.017-.122-.014-.194.013-.239.183-.279.375-.268.288.014,1.337.189,1.624.228.166.033.526.052.513.291-.008.145-.1.163-.3.274-.248.155-.287.441-.318,1.041l-.33,6.334c-.021.384.139.559.546.581l.072,0c.407.021.584-.138.6-.522Z" transform="translate(0.083 0)"/>
    <path id="パス_229" data-name="パス 229" d="M139.268,6.942c.475.073.694-.088.764-.539l.277-1.8c.1-.617.146-1.265.179-1.8.01-.071,0-.17.012-.241.044-.285.265-.3.5-.263.332.051,1.854.431,2.227.536.21.057.611.143.566.427-.025.166-.151.2-.363.309-.294.174-.387.621-.515,1.452l-.273,1.78c-.069.451.115.675.565.744l4.038.621c.973.149,1.955.251,2.927.4.618.1.523.4.38,1.322s-.142,1.242-.759,1.148c-.975-.15-1.941-.347-2.914-.5l-4.037-.619a.578.578,0,0,0-.767.561l-.39,2.541a.58.58,0,0,0,.561.768l3.016.463c.95.146,1.911.22,2.861.366.641.1.565.428.43,1.306-.138.9-.166,1.239-.807,1.14-.951-.145-1.888-.363-2.838-.509L141.9,16.1a.58.58,0,0,0-.768.562L140.6,20.1c-.069.452.115.675.565.745l4.917.755c.973.15,1.978.255,2.974.409.642.1.546.4.4,1.326s-.165,1.238-.784,1.143c-1-.153-1.964-.349-2.961-.5l-13.867-2.132c-.974-.15-1.979-.255-2.976-.409-.616-.094-.546-.4-.4-1.326.145-.95.166-1.238.784-1.143,1,.153,1.988.353,2.96.5l5.011.77c.475.073.694-.088.764-.538l.529-3.443c.072-.475-.088-.7-.562-.768l-2.945-.452c-.95-.147-1.888-.217-2.837-.363-.665-.1-.593-.407-.45-1.333.139-.9.162-1.215.827-1.113.95.146,1.864.36,2.815.505l2.944.452c.475.073.694-.088.768-.562l.39-2.541c.073-.474-.088-.695-.562-.767l-3.468-.533a.86.86,0,0,0-.986.407c-.431.59-2.438,3.369-3.127,3.264-.427-.067-1.713-.872-1.633-1.394.033-.214.31-.438.451-.562a19.809,19.809,0,0,0,4.923-7.678c.088-.253.166-.606.474-.559.166.026.917.36,1.123.441,1.093.483,1.49.592,1.446.878-.036.237-.316.316-.493.361-.409.132-.482.291-.817,1.042-.107.227-.254.544-.43.906a.532.532,0,0,0-.053.187c-.048.307.151.435.436.479Z" transform="translate(0.103 0.002)"/>
    <path id="パス_230" data-name="パス 230" d="M160.354,18.368c-.117-.031-.165.055-.212.142l-1.386,5.173c-.274,1.02-.478,2.059-.751,3.08-.187.7-.4.663-1.353.407s-1.154-.333-.968-1.029c.274-1.022.593-2.029.868-3.049l.908-3.388c.03-.115-.033-.157-.056-.164a.113.113,0,0,0-.135.039,22.882,22.882,0,0,1-2.1,2.569c-.172.177-.392.441-.671.367a2.433,2.433,0,0,1-.975-1.654,2.33,2.33,0,0,1,.582-.689,29.016,29.016,0,0,0,4.191-5.341c.018-.069.055-.109.073-.18a.4.4,0,0,0-.335-.511c-.464-.124-.934-.226-1.4-.35-.557-.148-.459-.421-.236-1.256.237-.882.287-1.166.869-1.011.532.143,1.047.355,1.587.475a.555.555,0,0,0,.794-.458l.324-1.206c.074-.278.02-.541-.282-.622a.359.359,0,0,0-.168-.021,8.1,8.1,0,0,1-1.292-.1c-.555-.15-.611-1.705-.524-2.032s.309-.314,1.029-.22a16.708,16.708,0,0,0,5.422-.288.723.723,0,0,1,.392-.069,6.048,6.048,0,0,1,.851,2.391.237.237,0,0,1-.271.176.593.593,0,0,1-.2-.1,1.551,1.551,0,0,0-.259-.144,9.049,9.049,0,0,0-1.127.121c-.157.032-.31.041-.361.051-.5.091-.687.24-.811.7l-.521,1.949c-.119.44.017.677.481.8.481.153,1.01.22,1.52.357.579.155.481.427.246,1.309-.224.836-.276,1.12-.856.965-.464-.125-.922-.272-1.362-.39-.209-.056-.373,0-.429.208a.466.466,0,0,0,.008.25,17.213,17.213,0,0,0,1.294,3.43.574.574,0,0,1,.1.45,2.287,2.287,0,0,1-1.478.972c-.394-.106-.788-1.6-.887-1.979-.034-.059-.068-.117-.137-.136m14.061-.335a1.559,1.559,0,0,1,.465.026c.3.081.356.343.386.6.1.824.178,1.938.2,2.765a19.365,19.365,0,0,1-.15,3.44c-.137.51-1.586.445-1.841.376-.348-.092-.31-.331-.3-.652a27.268,27.268,0,0,0,.027-5.113.258.258,0,0,0-.181-.248.323.323,0,0,0-.3.093,34.49,34.49,0,0,1-4.722,4.354,1.551,1.551,0,0,0-.61.981l-.3,1.113c-.317,1.182-.255,1.323.673,1.572l1.531.41c1.066.285,1.192.1,2.022-1.8.254-.578.338-.706.687-.611s1.671.722,1.484,1.417a12.865,12.865,0,0,1-1.9,3.1,2.049,2.049,0,0,1-2.254.341l-3.108-.834c-1.229-.33-2.295-.714-1.891-2.222a6.4,6.4,0,0,1,.2-.667c.014-.146.005-.3-.181-.347a.361.361,0,0,0-.233.037c-.664.344-3.628,1.663-4.231,1.5-.393-.105-.866-1.5-.779-1.824.081-.3.66-.419.929-.5a19.848,19.848,0,0,0,4.959-2.178,1.288,1.288,0,0,0,.681-.961l1.964-7.33A11.541,11.541,0,0,0,168,13.306l.062-.232c.068-.255.219-.263.428-.208.464.124,1.472.444,1.948.62.2.079.48.155.406.432-.044.163-.155.207-.3.27-.363.15-.492.538-.729,1.419l-1.163,4.338a.192.192,0,0,0,.107.252.242.242,0,0,0,.187-.049,28.8,28.8,0,0,0,6.283-8.51c.121-.266.2-.468.478-.394a9.381,9.381,0,0,1,1.5.9c.19.125.657.423.6.657-.044.162-.277.2-.436.231-.321.087-.375.2-.554.5a34.026,34.026,0,0,1-2.626,4.045c-.041.063-.065.057-.083.126a.247.247,0,0,0,.192.3Zm-7.856-1.11c-.381.121-.41.139-.527.479a37.613,37.613,0,0,1-2.3,5.053c-.172.277-.335.606-.708.507-.324-.088-1.4-.724-1.292-1.117a2.734,2.734,0,0,1,.367-.623,22.138,22.138,0,0,0,2.289-5.2c.062-.232.142-.533.468-.446.162.043,1.236.579,1.456.689.156.066.554.248.492.479a.286.286,0,0,1-.247.183m5.283-2.463c-.255-.068-.461-.6-.75-1.1a28.321,28.321,0,0,0-1.939-2.881c-.131-.16-.36-.42-.3-.652.068-.255,1.109-1.17,1.549-1.052.371.1,1.257,1.431,1.5,1.82.3.453,1.609,2.344,1.485,2.808-.087.324-1.179,1.152-1.55,1.052" transform="translate(0.123 0.005)"/>
    <path id="パス_231" data-name="パス 231" d="M181.987,34.04c.144-.356.074-.565-.282-.711l-1-.405a.484.484,0,0,0-.719.3l-.09.223c-.208.512-.44.443-1.33.083s-1.1-.473-.9-.985c.225-.557.473-1.1.7-1.661l1.111-2.739c.189-.467.356-.944.546-1.411.3-.735.789-.8,1.456-.524.423.172.86.374,1.282.546l1.67.676c.423.172.833.312,1.233.474.669.27.979.656.682,1.391-.189.467-.4.926-.591,1.393l-1.11,2.739c-.226.556-.406,1.131-.642,1.71-.207.511-.5.394-1.276.079-.757-.307-1.047-.424-.83-.959Zm.323-2.461a.638.638,0,0,0,.868-.348l.55-1.358a.69.69,0,0,0-.37-.877l-.825-.333a.643.643,0,0,0-.877.37l-.549,1.358a.6.6,0,0,0,.379.854Zm.782-5.957c-.557-.226-1.122-.429-1.59-.618s-.377-.411-.088-1.124c.271-.669.379-.936.847-.747.378.154.962.442,1.562.686l1.872.759c.578.234,1.219.442,1.576.586.489.2.358.457.088,1.125-.28.69-.357.944-.847.746s-.993-.428-1.549-.654Zm1.391-6.436c-.6-.243-1.266-.46-1.778-.669s-.381-.465-.11-1.134.356-.944.869-.736c.557.226,1.14.513,1.74.758l3.852,1.56c.6.245,1.243.453,1.8.679.49.2.368.434.089,1.124s-.357.945-.847.746c-.512-.207-1.162-.522-1.763-.766Zm-.163,3.408c-.557-.225-1.176-.424-1.6-.6-.468-.19-.359-.456-.089-1.125s.37-.913.838-.724c.423.172,1.007.459,1.562.686l1.872.758c.555.226,1.153.415,1.576.587.489.2.359.456.1,1.1-.27.668-.356.944-.846.746-.468-.189-.985-.45-1.541-.677Zm2.476-5.918c-.579-.234-1.176-.424-1.576-.587-.49-.2-.382-.464-.093-1.177s.4-.981.887-.782c.468.189.984.451,1.54.676l1.826.741c.533.216,1.086.388,1.576.587.512.207.341.5.071,1.169-.281.691-.375.989-.866.79-.466-.189-.984-.45-1.54-.676Zm10.3,7.6a.58.58,0,0,0,.37.877l1.247.505c.8.324,1.622.605,2.423.93.6.244.461.524.146,1.3s-.42,1.1-1.022.857c-.8-.324-1.585-.694-2.386-1.02l-1.248-.5a.572.572,0,0,0-.867.348l-.794,1.96a.58.58,0,0,0,.37.876l.246.1c.533.216,1.077.41,1.611.628.646.26,1.157.6.842,1.378-.19.466-.414.894-.6,1.362l-1.642,4.052c-.235.578-.415,1.153-.651,1.731-.208.512-.511.364-1.334.031-.847-.343-1.167-.448-.96-.96l.064-.156a.469.469,0,0,0-.283-.711l-3.829-1.552a.476.476,0,0,0-.72.3l-.054.134c-.2.489-.466.381-1.357.021-.868-.353-1.135-.46-.937-.952.234-.578.505-1.117.74-1.7l1.633-4.03c.189-.467.348-.922.528-1.368.316-.779.9-.7,1.55-.433.534.216,1.06.455,1.616.682l.133.053a.572.572,0,0,0,.877-.37l.794-1.96c.172-.423.066-.674-.379-.854l-.824-.333c-.8-.326-1.621-.606-2.423-.931-.623-.253-.483-.532-.158-1.335s.432-1.068,1.034-.825c.8.325,1.585.695,2.387,1.019l.824.334a.572.572,0,0,0,.876-.371l.6-1.469a.517.517,0,0,0-.354-.792c-.507-.153-1.973-.566-2.4-.738a.777.777,0,0,1-.559-.668,4.367,4.367,0,0,1,.216-1.493c.153-.378.43-.292,1.107-.044a22.949,22.949,0,0,0,8.411,1.7,1.1,1.1,0,0,1,.272.032c.222.09.41.841.55,1.52a2.931,2.931,0,0,1,.164,1.129.21.21,0,0,1-.259.128.861.861,0,0,1-.306-.2,1.439,1.439,0,0,0-.294-.17,1.738,1.738,0,0,0-.49-.07,28.014,28.014,0,0,1-2.881-.312.679.679,0,0,0-.877.5Zm-3.743,11.6a.638.638,0,0,0,.855-.379l.912-2.249a.669.669,0,0,0-.349-.868l-3.7-1.5a.686.686,0,0,0-.876.37l-.912,2.249a.686.686,0,0,0,.371.876Z" transform="translate(0.142 0.011)"/>
  </g>
</svg>
